<?xml version="1.0" encoding="UTF-8"?>
<svg id="Layer_2" data-name="Layer 2" xmlns="http://www.w3.org/2000/svg" viewBox="0 0 1018.36 188.89">
  <defs>
    <style>
      .cls-1 {
        fill: #f9f9f9;
      }

      .cls-1, .cls-2, .cls-3 {
        stroke-width: 0px;
      }

      .cls-2 {
        fill: #23ce6b;
      }

      .cls-3 {
        fill: #f456b8;
      }
    </style>
  </defs>
  <g id="Layer_1-2" data-name="Layer 1">
    <g>
      <g>
        <g>
          <path class="cls-2" d="m183.98,150.48c-8.54,0-16.44-2.1-23.72-6.3-7.28-4.2-13.12-10.25-17.52-18.15-4.41-7.9-6.61-17.45-6.61-28.65v-3.15c0-11.05,2.17-20.57,6.51-28.54,4.33-7.98,10.14-14.06,17.42-18.26,7.27-4.2,15.25-6.3,23.93-6.3,6.72,0,12.35.84,16.9,2.52,4.55,1.68,8.29,3.81,11.23,6.4,2.94,2.59,5.17,5.28,6.72,8.08h3.36V.63h21.62v146.91h-21.2v-14.69h-3.36c-2.66,4.48-6.68,8.54-12.07,12.17-5.39,3.64-13.12,5.46-23.19,5.46Zm6.09-18.89c9.37,0,17.1-3.01,23.19-9.03,6.09-6.01,9.13-14.62,9.13-25.81v-1.89c0-11.05-3.01-19.59-9.02-25.6-6.02-6.01-13.78-9.02-23.3-9.02s-16.9,3.01-22.98,9.02c-6.09,6.02-9.13,14.55-9.13,25.6v1.89c0,11.2,3.04,19.8,9.13,25.81,6.09,6.02,13.75,9.03,22.98,9.03Z"/>
          <path class="cls-2" d="m311.79,150.48c-10.36,0-19.55-2.13-27.6-6.4-8.05-4.27-14.38-10.39-18.99-18.36-4.62-7.98-6.93-17.42-6.93-28.33v-3.15c0-10.91,2.31-20.32,6.93-28.23,4.62-7.9,10.95-14.03,18.99-18.36,8.04-4.33,17.24-6.51,27.6-6.51s19.59,2.17,27.7,6.51c8.11,4.34,14.48,10.46,19.1,18.36,4.62,7.91,6.93,17.31,6.93,28.23v3.15c0,10.91-2.31,20.36-6.93,28.33-4.62,7.98-10.99,14.1-19.1,18.36-8.12,4.27-17.35,6.4-27.7,6.4Zm0-19.31c9.51,0,17.24-3.04,23.19-9.13,5.95-6.09,8.92-14.51,8.92-25.29v-1.89c0-10.77-2.94-19.2-8.81-25.29-5.88-6.09-13.64-9.13-23.3-9.13s-17.04,3.04-22.98,9.13c-5.95,6.09-8.92,14.52-8.92,25.29v1.89c0,10.78,2.97,19.2,8.92,25.29,5.95,6.09,13.61,9.13,22.98,9.13Z"/>
          <path class="cls-2" d="m417.77,147.54c-6.3,0-11.3-1.89-15.01-5.67-3.71-3.78-5.56-8.81-5.56-15.11V62.33h-28.54v-18.26h28.54V9.86h21.62v34.21h30.85v18.26h-30.85v60.65c0,4.2,1.96,6.3,5.88,6.3h21.62v18.26h-28.54Z"/>
        </g>
        <g>
          <path class="cls-1" d="m474.42,188.89V43.44h21.2v14.9h3.36c2.66-4.62,6.68-8.74,12.07-12.38,5.38-3.64,13.12-5.46,23.19-5.46,8.67,0,16.61,2.1,23.82,6.3,7.2,4.2,13.01,10.25,17.42,18.15,4.41,7.91,6.61,17.46,6.61,28.65v3.15c0,11.2-2.17,20.75-6.51,28.65-4.34,7.91-10.15,13.96-17.42,18.15-7.28,4.2-15.25,6.3-23.93,6.3-6.72,0-12.38-.84-17-2.52s-8.33-3.81-11.12-6.4c-2.8-2.59-5.04-5.28-6.72-8.08h-3.36v56.04h-21.62Zm53.52-57.93c9.51,0,17.28-3.01,23.3-9.03,6.01-6.01,9.02-14.62,9.02-25.81v-1.89c0-11.05-3.04-19.59-9.13-25.6-6.09-6.01-13.82-9.02-23.19-9.02s-16.9,3.01-22.98,9.02c-6.09,6.02-9.13,14.55-9.13,25.6v1.89c0,11.2,3.04,19.8,9.13,25.81,6.09,6.02,13.75,9.03,22.98,9.03Z"/>
          <path class="cls-1" d="m596.34,146.91V43.44h21.62v103.47h-21.62Z"/>
          <path class="cls-1" d="m631.07,146.91l39.46-52.26-38.62-51.21h25.39l27.07,37.15h3.36l27.07-37.15h25.61l-38.83,51.21,39.46,52.26h-25.81l-27.49-37.99h-3.36l-27.49,37.99h-25.82Z"/>
          <path class="cls-1" d="m794.96,149.85c-10.49,0-19.66-2.2-27.49-6.61-7.84-4.41-13.96-10.63-18.36-18.68-4.41-8.04-6.61-17.38-6.61-28.02v-2.52c0-10.77,2.17-20.18,6.51-28.23,4.33-8.04,10.39-14.27,18.15-18.68,7.77-4.41,16.75-6.61,26.97-6.61s18.64,2.2,26.13,6.61c7.48,4.41,13.33,10.53,17.53,18.36,4.2,7.84,6.3,17,6.3,27.49v8.19h-79.54c.28,9.1,3.32,16.34,9.13,21.72,5.8,5.39,13.05,8.08,21.72,8.08,8.11,0,14.24-1.82,18.36-5.46,4.12-3.64,7.31-7.83,9.55-12.59l17.84,9.23c-1.96,3.92-4.79,8.05-8.5,12.38-3.71,4.34-8.57,7.98-14.59,10.91-6.02,2.94-13.71,4.41-23.09,4.41Zm-30.22-65.27h57.3c-.56-7.83-3.36-13.96-8.39-18.36-5.04-4.41-11.62-6.61-19.73-6.61s-14.73,2.2-19.83,6.61c-5.11,4.41-8.22,10.53-9.34,18.36Z"/>
          <path class="cls-1" d="m860.61,146.91V0h21.62v146.91h-21.62Z"/>
          <rect class="cls-1" x="596.34" width="21.62" height="21.62"/>
        </g>
      </g>
      <g>
        <path class="cls-3" d="m98.14,147.56L0,111.34v-30.37l98.14-36.22v24.07l-74.31,25.47v3.74l74.31,25.47v24.07Z"/>
        <path class="cls-3" d="m920.22,44.75l98.14,36.22v30.37l-98.14,36.22v-24.07l74.31-25.47v-3.74l-74.31-25.47v-24.07Z"/>
      </g>
    </g>
  </g>
</svg>