<?xml version="1.0" encoding="UTF-8"?>
<svg id="Layer_2" data-name="Layer 2" xmlns="http://www.w3.org/2000/svg" viewBox="0 0 716.65 286.15">
  <defs>
    <style>
      .cls-1 {
        fill: #171f42;
      }

      .cls-1, .cls-2 {
        stroke-width: 0px;
      }

      .cls-2 {
        fill: #f456b8;
      }
    </style>
  </defs>
  <g id="Layer_1-2" data-name="Layer 1">
    <g>
      <g>
        <path class="cls-2" d="m189.26,203.93L0,134.09v-58.58L189.26,5.66v46.41L45.96,101.19v7.21l143.29,49.11v46.41Z"/>
        <path class="cls-2" d="m527.39,5.66l189.26,69.85v58.58l-189.26,69.85v-46.41l143.29-49.11v-7.21l-143.29-49.11V5.66Z"/>
      </g>
      <path class="cls-1" d="m266.21,286.15V5.66h40.88v28.74h6.48c5.12-8.9,12.88-16.86,23.27-23.88,10.38-7.01,25.3-10.52,44.72-10.52,16.73,0,32.04,4.05,45.94,12.14,13.89,8.09,25.09,19.77,33.59,35.01,8.5,15.25,12.75,33.66,12.75,55.25v6.07c0,21.59-4.19,40.01-12.55,55.25-8.37,15.25-19.57,26.92-33.59,35.01-14.03,8.1-29.41,12.14-46.14,12.14-12.95,0-23.88-1.62-32.78-4.86-8.9-3.24-16.06-7.35-21.45-12.34-5.4-4.99-9.71-10.18-12.95-15.58h-6.48v108.07h-41.69Zm103.21-111.71c18.35,0,33.32-5.8,44.93-17.41,11.6-11.6,17.4-28.19,17.4-49.78v-3.64c0-21.31-5.87-37.77-17.61-49.38-11.74-11.6-26.65-17.4-44.72-17.4s-32.58,5.81-44.32,17.4c-11.74,11.6-17.61,28.07-17.61,49.38v3.64c0,21.59,5.87,38.18,17.61,49.78,11.74,11.6,26.51,17.41,44.32,17.41Z"/>
    </g>
  </g>
</svg>