<?xml version="1.0" encoding="UTF-8"?>
<svg id="Layer_2" data-name="Layer 2" xmlns="http://www.w3.org/2000/svg" viewBox="0 0 734.22 188.89">
  <defs>
    <style>
      .cls-1 {
        fill: #f9f9f9;
      }

      .cls-1, .cls-2, .cls-3 {
        stroke-width: 0px;
      }

      .cls-2 {
        fill: #23ce6b;
      }

      .cls-3 {
        fill: #f456b8;
      }
    </style>
  </defs>
  <g id="Layer_1-2" data-name="Layer 1">
    <g>
      <rect class="cls-2" x="133.95" y="119.71" width="27.2" height="27.2"/>
      <g>
        <g>
          <path class="cls-1" d="m192.46,188.89V43.44h21.2v14.9h3.36c2.66-4.62,6.68-8.74,12.07-12.38,5.38-3.64,13.12-5.46,23.19-5.46,8.67,0,16.61,2.1,23.82,6.3,7.2,4.2,13.01,10.25,17.42,18.15,4.41,7.91,6.61,17.46,6.61,28.65v3.15c0,11.2-2.17,20.75-6.51,28.65-4.34,7.91-10.15,13.96-17.42,18.15-7.28,4.2-15.25,6.3-23.93,6.3-6.72,0-12.38-.84-17-2.52s-8.33-3.81-11.12-6.4c-2.8-2.59-5.04-5.28-6.72-8.08h-3.36v56.04h-21.62Zm53.52-57.93c9.51,0,17.28-3.01,23.3-9.03,6.01-6.01,9.02-14.62,9.02-25.81v-1.89c0-11.05-3.04-19.59-9.13-25.6-6.09-6.01-13.82-9.02-23.19-9.02s-16.9,3.01-22.98,9.02c-6.09,6.02-9.13,14.55-9.13,25.6v1.89c0,11.2,3.04,19.8,9.13,25.81,6.09,6.02,13.75,9.03,22.98,9.03Z"/>
          <path class="cls-1" d="m314.38,146.91V43.44h21.62v103.47h-21.62Z"/>
          <path class="cls-1" d="m349.12,146.91l39.46-52.26-38.62-51.21h25.39l27.07,37.15h3.36l27.07-37.15h25.61l-38.83,51.21,39.46,52.26h-25.81l-27.49-37.99h-3.36l-27.49,37.99h-25.82Z"/>
          <path class="cls-1" d="m513,149.85c-10.49,0-19.66-2.2-27.49-6.61-7.84-4.41-13.96-10.63-18.36-18.68-4.41-8.04-6.61-17.38-6.61-28.02v-2.52c0-10.77,2.17-20.18,6.51-28.23,4.33-8.04,10.39-14.27,18.15-18.68,7.77-4.41,16.75-6.61,26.97-6.61s18.64,2.2,26.13,6.61c7.48,4.41,13.33,10.53,17.53,18.36,4.2,7.84,6.3,17,6.3,27.49v8.19h-79.54c.28,9.1,3.32,16.34,9.13,21.72,5.8,5.39,13.05,8.08,21.72,8.08,8.11,0,14.24-1.82,18.36-5.46,4.12-3.64,7.31-7.83,9.55-12.59l17.84,9.23c-1.96,3.92-4.79,8.05-8.5,12.38-3.71,4.34-8.57,7.98-14.59,10.91-6.02,2.94-13.71,4.41-23.09,4.41Zm-30.22-65.27h57.3c-.56-7.83-3.36-13.96-8.39-18.36-5.04-4.41-11.62-6.61-19.73-6.61s-14.73,2.2-19.83,6.61c-5.11,4.41-8.22,10.53-9.34,18.36Z"/>
          <path class="cls-1" d="m578.65,146.91V0h21.62v146.91h-21.62Z"/>
          <rect class="cls-1" x="314.38" width="21.62" height="21.62"/>
        </g>
        <g>
          <path class="cls-3" d="m98.14,146.91L0,110.7v-30.37l98.14-36.22v24.07l-74.31,25.47v3.74l74.31,25.47v24.07Z"/>
          <path class="cls-3" d="m636.08,44.1l98.14,36.22v30.37l-98.14,36.22v-24.07l74.31-25.47v-3.74l-74.31-25.47v-24.07Z"/>
        </g>
      </g>
    </g>
  </g>
</svg>